<svg width="863" height="999" viewBox="0 0 863 999" fill="none" xmlns="http://www.w3.org/2000/svg">
<path fill-rule="evenodd" clip-rule="evenodd" d="M625.611 -128.934C766.498 -131.525 916.766 -258.998 1034.61 -181.708C1151.57 -104.996 1105.31 78.4521 1145.95 212.336C1185.42 342.403 1292.84 456.797 1269.01 590.619C1244.06 730.64 1139.71 847.978 1019.26 923.527C903.48 996.15 761.755 1006.01 625.611 994.178C498.895 983.169 363.614 953.912 278.687 859.185C199.235 770.565 245.301 629.928 200.257 519.743C149.084 394.564 -5.03502 313.351 0.305574 178.214C5.88027 37.1533 100.726 -104.646 227.392 -166.864C350.086 -227.131 488.949 -126.421 625.611 -128.934Z" fill="#D9F4FF"/>
</svg>
