<svg width="22" height="24" viewBox="0 0 22 24" fill="none" xmlns="http://www.w3.org/2000/svg">
<path d="M5.27729 10.1258C5.45729 10.1483 5.62979 10.1558 5.80979 10.1558C6.91979 10.1558 7.98479 9.78076 8.85479 9.07576C9.86729 8.25826 10.5048 7.09576 10.6473 5.79826C10.7898 4.50076 10.4148 3.23326 9.59729 2.22076C7.90979 0.128257 4.83479 -0.201743 2.74229 1.48576C1.72979 2.30326 1.09229 3.46576 0.949794 4.76326C0.807294 6.06076 1.18229 7.32826 1.99979 8.34076C2.82479 9.35326 3.98729 9.99076 5.27729 10.1258ZM3.19229 5.00326C3.26729 4.30576 3.61229 3.68326 4.15229 3.24076C4.62479 2.85826 5.19479 2.66326 5.79479 2.66326C5.89229 2.66326 5.98229 2.67076 6.07979 2.67826C6.77729 2.75326 7.3998 3.09826 7.8423 3.64576C8.28479 4.19326 8.47979 4.87576 8.4048 5.57326C8.32979 6.27076 7.98479 6.89326 7.44479 7.33576C6.90479 7.77826 6.21479 7.97326 5.51729 7.89826C4.81979 7.82326 4.19729 7.47826 3.75479 6.93076C3.31979 6.38326 3.11729 5.70076 3.19229 5.00326Z" fill="#130F49"/>
<path d="M20.4198 15.6607C18.7323 13.5682 15.6573 13.2382 13.5648 14.9257C12.5523 15.7432 11.9148 16.9057 11.7723 18.2032C11.6298 19.5007 12.0048 20.7682 12.8223 21.7807C13.6398 22.7932 14.8023 23.4307 16.0998 23.5732C16.2798 23.5957 16.4523 23.6032 16.6323 23.6032C17.7423 23.6032 18.8073 23.2282 19.6773 22.5232C21.7698 20.8282 22.1073 17.7532 20.4198 15.6607ZM18.2673 20.7607C17.7198 21.2032 17.0373 21.3982 16.3398 21.3232C15.6423 21.2482 15.0198 20.9032 14.5773 20.3557C14.1348 19.8082 13.9398 19.1257 14.0148 18.4282C14.0898 17.7307 14.4348 17.1082 14.9748 16.6657C15.4623 16.2757 16.0398 16.0882 16.6173 16.0882C17.3823 16.0882 18.1473 16.4257 18.6648 17.0632C19.5723 18.1957 19.3923 19.8532 18.2673 20.7607Z" fill="#130F49"/>
<path d="M21.1998 3.47323C20.8098 2.98573 20.1048 2.91073 19.6173 3.30073L0.927332 18.3607C0.439832 18.7507 0.364832 19.4557 0.754832 19.9432C0.979832 20.2207 1.30233 20.3632 1.63233 20.3632C1.87983 20.3632 2.12733 20.2807 2.33733 20.1157L21.0273 5.06323C21.5148 4.66573 21.5898 3.96073 21.1998 3.47323Z" fill="#130F49"/>
</svg>
